<?xml version="1.0" encoding="UTF-8" standalone="no"?>
<!-- Uploaded to: SVG Repo, www.svgrepo.com, Generator: SVG Repo Mixer Tools -->

<svg
   fill="#000000"
   width="800px"
   height="800px"
   viewBox="0 0 96 96"
   version="1.1"
   id="svg1"
   xmlns="http://www.w3.org/2000/svg"
   xmlns:svg="http://www.w3.org/2000/svg">
  <defs
     id="defs1" />
  <title
     id="title1" />
  <path
     d="M69.3677,51.0059a30,30,0,1,0-42.7354,0A41.9971,41.9971,0,0,0,0,90a5.9966,5.9966,0,0,0,6,6H90a5.9966,5.9966,0,0,0,6-6A41.9971,41.9971,0,0,0,69.3677,51.0059ZM48,12A18,18,0,1,1,30,30,18.02,18.02,0,0,1,48,12ZM12.5977,84A30.0624,30.0624,0,0,1,42,60H54A30.0624,30.0624,0,0,1,83.4023,84Z"
     id="path1"
     style="fill:#ff61a2;fill-opacity:1" />
</svg>
