<svg id="visual" viewBox="0 0 960 540" width="960" height="540" xmlns="http://www.w3.org/2000/svg" xmlns:xlink="http://www.w3.org/1999/xlink" version="1.1"><rect x="0" y="0" width="960" height="540" fill="#001122"></rect><defs><linearGradient id="grad1_0" x1="43.8%" y1="100%" x2="100%" y2="0%"><stop offset="14.444444444444446%" stop-color="#ff61a2" stop-opacity="1"></stop><stop offset="85.55555555555554%" stop-color="#ff61a2" stop-opacity="1"></stop></linearGradient></defs><defs><linearGradient id="grad1_1" x1="43.8%" y1="100%" x2="100%" y2="0%"><stop offset="14.444444444444446%" stop-color="#ff61a2" stop-opacity="1"></stop><stop offset="85.55555555555554%" stop-color="#64427e" stop-opacity="1"></stop></linearGradient></defs><defs><linearGradient id="grad1_2" x1="43.8%" y1="100%" x2="100%" y2="0%"><stop offset="14.444444444444446%" stop-color="#001122" stop-opacity="1"></stop><stop offset="85.55555555555554%" stop-color="#64427e" stop-opacity="1"></stop></linearGradient></defs><defs><linearGradient id="grad2_0" x1="0%" y1="100%" x2="56.3%" y2="0%"><stop offset="14.444444444444446%" stop-color="#ff61a2" stop-opacity="1"></stop><stop offset="85.55555555555554%" stop-color="#ff61a2" stop-opacity="1"></stop></linearGradient></defs><defs><linearGradient id="grad2_1" x1="0%" y1="100%" x2="56.3%" y2="0%"><stop offset="14.444444444444446%" stop-color="#64427e" stop-opacity="1"></stop><stop offset="85.55555555555554%" stop-color="#ff61a2" stop-opacity="1"></stop></linearGradient></defs><defs><linearGradient id="grad2_2" x1="0%" y1="100%" x2="56.3%" y2="0%"><stop offset="14.444444444444446%" stop-color="#64427e" stop-opacity="1"></stop><stop offset="85.55555555555554%" stop-color="#001122" stop-opacity="1"></stop></linearGradient></defs><g transform="translate(960, 540)"><path d="M-459 0C-421.4 -45.3 -383.7 -90.7 -368.6 -152.7C-353.5 -214.7 -361 -293.4 -324.6 -324.6C-288.2 -355.7 -208 -339.4 -146.6 -353.8C-85.2 -368.3 -42.6 -413.7 0 -459L0 0Z" fill="#262c53"></path><path d="M-306 0C-280.9 -30.2 -255.8 -60.5 -245.8 -101.8C-235.7 -143.1 -240.6 -195.6 -216.4 -216.4C-192.1 -237.2 -138.6 -226.2 -97.7 -235.9C-56.8 -245.6 -28.4 -275.8 0 -306L0 0Z" fill="#b0529a"></path><path d="M-153 0C-140.5 -15.1 -127.9 -30.2 -122.9 -50.9C-117.8 -71.6 -120.3 -97.8 -108.2 -108.2C-96.1 -118.6 -69.3 -113.1 -48.9 -117.9C-28.4 -122.8 -14.2 -137.9 0 -153L0 0Z" fill="#ff61a2"></path></g><g transform="translate(0, 0)"><path d="M459 0C425.3 47.9 391.6 95.8 375.1 155.4C358.6 214.9 359.3 286.2 324.6 324.6C289.8 362.9 219.6 368.3 159.6 385.3C99.6 402.2 49.8 430.6 0 459L0 0Z" fill="#262c53"></path><path d="M306 0C283.5 31.9 261.1 63.9 250.1 103.6C239.1 143.3 239.5 190.8 216.4 216.4C193.2 241.9 146.4 245.6 106.4 256.8C66.4 268.1 33.2 287.1 0 306L0 0Z" fill="#b0529a"></path><path d="M153 0C141.8 16 130.5 31.9 125 51.8C119.5 71.6 119.8 95.4 108.2 108.2C96.6 121 73.2 122.8 53.2 128.4C33.2 134.1 16.6 143.5 0 153L0 0Z" fill="#ff61a2"></path></g></svg>