<svg id="visual" viewBox="0 0 1920 1080" width="1920" height="1080" xmlns="http://www.w3.org/2000/svg" xmlns:xlink="http://www.w3.org/1999/xlink" version="1.1"><rect x="0" y="0" width="1920" height="1080" fill="#050022"></rect><path d="M0 660L274 777L549 735L823 768L1097 734L1371 824L1646 678L1920 662L1920 1081L1646 1081L1371 1081L1097 1081L823 1081L549 1081L274 1081L0 1081Z" fill="#0af5ce"></path><path d="M0 768L274 832L549 698L823 821L1097 840L1371 765L1646 869L1920 700L1920 1081L1646 1081L1371 1081L1097 1081L823 1081L549 1081L274 1081L0 1081Z" fill="#00ccdd"></path><path d="M0 893L274 924L549 916L823 923L1097 877L1371 916L1646 784L1920 864L1920 1081L1646 1081L1371 1081L1097 1081L823 1081L549 1081L274 1081L0 1081Z" fill="#009fcc"></path><path d="M0 960L274 943L549 965L823 951L1097 996L1371 938L1646 899L1920 884L1920 1081L1646 1081L1371 1081L1097 1081L823 1081L549 1081L274 1081L0 1081Z" fill="#0072ad"></path><path d="M0 985L274 1026L549 946L823 999L1097 1036L1371 976L1646 969L1920 1038L1920 1081L1646 1081L1371 1081L1097 1081L823 1081L549 1081L274 1081L0 1081Z" fill="#004787"></path></svg>