<svg id="visual" viewBox="0 0 900 600" width="900" height="600" xmlns="http://www.w3.org/2000/svg" xmlns:xlink="http://www.w3.org/1999/xlink" version="1.1"><path d="M0 229L69 229L69 115L138 115L138 283L208 283L208 73L277 73L277 133L346 133L346 157L415 157L415 301L485 301L485 175L554 175L554 313L623 313L623 235L692 235L692 181L762 181L762 133L831 133L831 85L900 85L900 253L900 0L900 0L831 0L831 0L762 0L762 0L692 0L692 0L623 0L623 0L554 0L554 0L485 0L485 0L415 0L415 0L346 0L346 0L277 0L277 0L208 0L208 0L138 0L138 0L69 0L69 0L0 0Z" fill="#69d9fa"></path><path d="M0 427L69 427L69 373L138 373L138 355L208 355L208 301L277 301L277 283L346 283L346 289L415 289L415 385L485 385L485 295L554 295L554 373L623 373L623 355L692 355L692 361L762 361L762 373L831 373L831 343L900 343L900 415L900 251L900 83L831 83L831 131L762 131L762 179L692 179L692 233L623 233L623 311L554 311L554 173L485 173L485 299L415 299L415 155L346 155L346 131L277 131L277 71L208 71L208 281L138 281L138 113L69 113L69 227L0 227Z" fill="#64b5f6"></path><path d="M0 493L69 493L69 457L138 457L138 439L208 439L208 433L277 433L277 475L346 475L346 427L415 427L415 451L485 451L485 481L554 481L554 415L623 415L623 469L692 469L692 433L762 433L762 433L831 433L831 451L900 451L900 481L900 413L900 341L831 341L831 371L762 371L762 359L692 359L692 353L623 353L623 371L554 371L554 293L485 293L485 383L415 383L415 287L346 287L346 281L277 281L277 299L208 299L208 353L138 353L138 371L69 371L69 425L0 425Z" fill="#8a8bdd"></path><path d="M0 565L69 565L69 511L138 511L138 517L208 517L208 571L277 571L277 505L346 505L346 523L415 523L415 553L485 553L485 511L554 511L554 523L623 523L623 511L692 511L692 529L762 529L762 511L831 511L831 529L900 529L900 535L900 479L900 449L831 449L831 431L762 431L762 431L692 431L692 467L623 467L623 413L554 413L554 479L485 479L485 449L415 449L415 425L346 425L346 473L277 473L277 431L208 431L208 437L138 437L138 455L69 455L69 491L0 491Z" fill="#ab5aa8"></path><path d="M0 601L69 601L69 601L138 601L138 601L208 601L208 601L277 601L277 601L346 601L346 601L415 601L415 601L485 601L485 601L554 601L554 601L623 601L623 601L692 601L692 601L762 601L762 601L831 601L831 601L900 601L900 601L900 533L900 527L831 527L831 509L762 509L762 527L692 527L692 509L623 509L623 521L554 521L554 509L485 509L485 551L415 551L415 521L346 521L346 503L277 503L277 569L208 569L208 515L138 515L138 509L69 509L69 563L0 563Z" fill="#b0235f"></path></svg>