<svg id="visual" viewBox="0 0 1920 1080" width="1920" height="1080" xmlns="http://www.w3.org/2000/svg" xmlns:xlink="http://www.w3.org/1999/xlink" version="1.1"><rect x="0" y="0" width="1920" height="1080" fill="#001220"></rect><path d="M1220 1080L1206.7 1054.3C1193.3 1028.7 1166.7 977.3 1176.2 925.8C1185.7 874.3 1231.3 822.7 1239.2 771.2C1247 719.7 1217 668.3 1232 617C1247 565.7 1307 514.3 1347.3 463C1387.7 411.7 1408.3 360.3 1418.5 308.8C1428.7 257.3 1428.3 205.7 1414 154.2C1399.7 102.7 1371.3 51.3 1357.2 25.7L1343 0L1920 0L1920 25.7C1920 51.3 1920 102.7 1920 154.2C1920 205.7 1920 257.3 1920 308.8C1920 360.3 1920 411.7 1920 463C1920 514.3 1920 565.7 1920 617C1920 668.3 1920 719.7 1920 771.2C1920 822.7 1920 874.3 1920 925.8C1920 977.3 1920 1028.7 1920 1054.3L1920 1080Z" fill="#fa69d0"></path><path d="M1330 1080L1344.2 1054.3C1358.3 1028.7 1386.7 977.3 1389.2 925.8C1391.7 874.3 1368.3 822.7 1346.2 771.2C1324 719.7 1303 668.3 1292.5 617C1282 565.7 1282 514.3 1306 463C1330 411.7 1378 360.3 1405.7 308.8C1433.3 257.3 1440.7 205.7 1443.7 154.2C1446.7 102.7 1445.3 51.3 1444.7 25.7L1444 0L1920 0L1920 25.7C1920 51.3 1920 102.7 1920 154.2C1920 205.7 1920 257.3 1920 308.8C1920 360.3 1920 411.7 1920 463C1920 514.3 1920 565.7 1920 617C1920 668.3 1920 719.7 1920 771.2C1920 822.7 1920 874.3 1920 925.8C1920 977.3 1920 1028.7 1920 1054.3L1920 1080Z" fill="#ef57b5"></path><path d="M1439 1080L1466 1054.3C1493 1028.7 1547 977.3 1563 925.8C1579 874.3 1557 822.7 1558.8 771.2C1560.7 719.7 1586.3 668.3 1603.2 617C1620 565.7 1628 514.3 1624 463C1620 411.7 1604 360.3 1590.5 308.8C1577 257.3 1566 205.7 1556.8 154.2C1547.7 102.7 1540.3 51.3 1536.7 25.7L1533 0L1920 0L1920 25.7C1920 51.3 1920 102.7 1920 154.2C1920 205.7 1920 257.3 1920 308.8C1920 360.3 1920 411.7 1920 463C1920 514.3 1920 565.7 1920 617C1920 668.3 1920 719.7 1920 771.2C1920 822.7 1920 874.3 1920 925.8C1920 977.3 1920 1028.7 1920 1054.3L1920 1080Z" fill="#e3469a"></path><path d="M1727 1080L1717.8 1054.3C1708.7 1028.7 1690.3 977.3 1683.7 925.8C1677 874.3 1682 822.7 1689.2 771.2C1696.3 719.7 1705.7 668.3 1709.2 617C1712.7 565.7 1710.3 514.3 1698.8 463C1687.3 411.7 1666.7 360.3 1653.7 308.8C1640.7 257.3 1635.3 205.7 1619 154.2C1602.7 102.7 1575.3 51.3 1561.7 25.7L1548 0L1920 0L1920 25.7C1920 51.3 1920 102.7 1920 154.2C1920 205.7 1920 257.3 1920 308.8C1920 360.3 1920 411.7 1920 463C1920 514.3 1920 565.7 1920 617C1920 668.3 1920 719.7 1920 771.2C1920 822.7 1920 874.3 1920 925.8C1920 977.3 1920 1028.7 1920 1054.3L1920 1080Z" fill="#d53580"></path><path d="M1720 1080L1735.7 1054.3C1751.3 1028.7 1782.7 977.3 1796.8 925.8C1811 874.3 1808 822.7 1798.8 771.2C1789.7 719.7 1774.3 668.3 1765.7 617C1757 565.7 1755 514.3 1756.2 463C1757.3 411.7 1761.7 360.3 1767 308.8C1772.3 257.3 1778.7 205.7 1782.8 154.2C1787 102.7 1789 51.3 1790 25.7L1791 0L1920 0L1920 25.7C1920 51.3 1920 102.7 1920 154.2C1920 205.7 1920 257.3 1920 308.8C1920 360.3 1920 411.7 1920 463C1920 514.3 1920 565.7 1920 617C1920 668.3 1920 719.7 1920 771.2C1920 822.7 1920 874.3 1920 925.8C1920 977.3 1920 1028.7 1920 1054.3L1920 1080Z" fill="#c62368"></path></svg>